<svg width="48" height="48" viewBox="0 0 48 48" fill="none" xmlns="http://www.w3.org/2000/svg">
<rect width="48" height="48" rx="20" fill="#2870FB"/>
<g clip-path="url(#clip0_1_6507)">
<path fill-rule="evenodd" clip-rule="evenodd" d="M16.0037 16.841C16.3449 15.8744 17.3479 15.3612 18.3586 15.5327C19.3117 15.6945 19.683 16.9075 19.0695 17.6545C18.8671 17.9009 18.6719 18.1569 18.5018 18.4103C19.5108 18.0098 20.6212 17.7162 21.8 17.5519V17.3223C21.8 16.77 22.2478 16.3223 22.8 16.3223H25.2C25.7523 16.3223 26.2 16.77 26.2 17.3223V17.552C27.3788 17.7162 28.4892 18.0098 29.4982 18.4103C29.3281 18.1569 29.1329 17.9009 28.9305 17.6545C28.317 16.9075 28.6883 15.6945 29.6414 15.5327C30.6521 15.3612 31.6551 15.8744 31.9963 16.841C32.2401 17.5317 32.5033 18.402 32.6917 19.3619C32.7676 19.748 32.7995 20.1006 32.8 20.4202C34.1814 21.6821 35 23.2509 35 24.9508C35 29.1205 30.0751 32.5007 24 32.5007C17.9249 32.5007 13 29.1205 13 24.9508C13 23.2509 13.8186 21.6821 15.2 20.4202C15.2005 20.1006 15.2324 19.748 15.3083 19.3619C15.4967 18.402 15.7599 17.5317 16.0037 16.841ZM16.85 23.7152C16.85 22.6106 17.7454 21.7152 18.85 21.7152H29.15C30.2545 21.7152 31.15 22.6106 31.15 23.7152V26.1865C31.15 27.2911 30.2545 28.1865 29.15 28.1865H18.85C17.7454 28.1865 16.85 27.2911 16.85 26.1865V23.7152ZM20 24C19.4477 24 19 24.4477 19 25C19 25.5523 19.4477 26 20 26H28C28.5523 26 29 25.5523 29 25C29 24.4477 28.5523 24 28 24H20Z" fill="white"/>
</g>
<defs>
<clipPath id="clip0_1_6507">
<rect width="24" height="24" fill="white" transform="translate(12 12)"/>
</clipPath>
</defs>
</svg>
