<svg width="78" height="42" viewBox="0 0 78 42" fill="none" xmlns="http://www.w3.org/2000/svg">
<path d="M31 11.4522V16.8002C31 17.9203 31 18.4807 31.218 18.9086C31.4097 19.2849 31.7155 19.5906 32.0918 19.7823C32.5192 20.0001 33.079 20.0001 34.1969 20.0001H43.8031C44.921 20.0001 45.48 20.0001 45.9074 19.7823C46.2837 19.5906 46.5905 19.2849 46.7822 18.9086C47 18.4811 47 17.9216 47 16.8037V11.4522C47 10.9179 46.9995 10.6506 46.9346 10.4019C46.877 10.1816 46.7825 9.97307 46.6546 9.78464C46.5102 9.57201 46.3096 9.39569 45.9074 9.04383L41.1074 4.84383C40.3608 4.19054 39.9875 3.86406 39.5674 3.73982C39.1972 3.63035 38.8026 3.63035 38.4324 3.73982C38.0126 3.86397 37.6398 4.19014 36.8944 4.84244L32.0928 9.04383C31.6906 9.39569 31.49 9.57201 31.3457 9.78464C31.2178 9.97307 31.1225 10.1816 31.065 10.4019C31 10.6506 31 10.9179 31 11.4522Z" fill="#CBCCCE" stroke="#CBCCCE" stroke-width="2" stroke-linecap="round" stroke-linejoin="round"/>
<path d="M40.1562 16H38.6641V11.7188H38.6328L37.3906 12.4727V11.1992L38.7812 10.3438H40.1562V16Z" fill="white"/>
<path d="M42.6094 39.8613H35.3496V36.832H42.6094V39.8613ZM36.4512 39.0117H41.5195V37.6816H36.4512V39.0117ZM43.2363 31.1836H34.6816V30.334H43.2363V31.1836ZM38.9883 31.5586C40.1055 31.5625 40.957 31.6895 41.543 31.9395C42.1328 32.1855 42.4277 32.5547 42.4277 33.0469C42.4277 33.5352 42.1328 33.9062 41.543 34.1602C40.957 34.4141 40.1055 34.541 38.9883 34.541C37.8789 34.541 37.0254 34.4141 36.4277 34.1602C35.8301 33.9062 35.5312 33.5352 35.5312 33.0469C35.5312 32.5586 35.8301 32.1895 36.4277 31.9395C37.0254 31.6895 37.8789 31.5625 38.9883 31.5586ZM38.9883 32.3203C38.4844 32.3203 38.0645 32.3496 37.7285 32.4082C37.3965 32.4629 37.1445 32.543 36.9727 32.6484C36.8047 32.7539 36.7207 32.8867 36.7207 33.0469C36.7207 33.1992 36.8066 33.3301 36.9785 33.4395C37.1543 33.5488 37.4102 33.6328 37.7461 33.6914C38.082 33.7461 38.4961 33.7734 38.9883 33.7734C39.4805 33.7734 39.8945 33.7461 40.2305 33.6914C40.5664 33.6328 40.8203 33.5488 40.9922 33.4395C41.1641 33.3301 41.25 33.1992 41.25 33.0469C41.25 32.8867 41.1641 32.7539 40.9922 32.6484C40.8203 32.543 40.5684 32.4629 40.2363 32.4082C39.9082 32.3496 39.4922 32.3203 38.9883 32.3203ZM39.5391 30.9141H38.4316V29.3613H39.5391V30.9141ZM43.7754 36.123H34.2012V35.2383H43.7754V36.123ZM39.5391 35.7305H38.4316V34.2539H39.5391V35.7305Z" fill="#B4B5B7"/>
</svg>
