<svg width="24" height="24" viewBox="0 0 24 24" fill="none" xmlns="http://www.w3.org/2000/svg">
<g clip-path="url(#clip0_1_6438)">
<path d="M22.8 11.0388H21.624C20.9604 11.0388 20.424 11.4696 20.424 12C20.424 12.5292 20.9604 12.9588 21.624 12.9588H22.8C23.4624 12.9588 24 12.5304 24 12C24 11.4708 23.4612 11.0388 22.8 11.0388ZM12 5.4C11.1325 5.39731 10.2731 5.56618 9.47111 5.89691C8.66914 6.22764 7.94049 6.71369 7.32709 7.32709C6.71369 7.94049 6.22764 8.66914 5.89691 9.47111C5.56618 10.2731 5.39731 11.1325 5.4 12C5.4 15.6612 8.3388 18.6 12 18.6C15.66 18.6 18.6 15.6612 18.6 12C18.6 8.3388 15.6588 5.4 12 5.4ZM12 16.8C9.3468 16.8 7.2 14.6508 7.2 12C7.2 9.3468 9.3468 7.2 12 7.2C13.273 7.2 14.4939 7.70571 15.3941 8.60589C16.2943 9.50606 16.8 10.727 16.8 12C16.8 13.273 16.2943 14.4939 15.3941 15.3941C14.4939 16.2943 13.273 16.8 12 16.8ZM3.6 12C3.6 11.4708 3.0612 11.0388 2.4 11.0388H1.2C0.5364 11.0388 0 11.4696 0 12C0 12.5292 0.5364 12.9588 1.2 12.9588H2.4C3.0612 12.9588 3.6 12.5292 3.6 12ZM12 3.6C12.5292 3.6 12.9588 3.0636 12.9588 2.4V1.2C12.9588 0.5364 12.5292 0 12 0C11.4696 0 11.0388 0.5364 11.0388 1.2V2.4C11.0388 3.0636 11.4696 3.6 12 3.6ZM12 20.4C11.4696 20.4 11.0388 20.9364 11.0388 21.6V22.8C11.0388 23.4636 11.4696 24 12 24C12.5292 24 12.9588 23.4636 12.9588 22.8V21.6C12.9588 20.9364 12.5292 20.4 12 20.4ZM20.838 4.5192C21.3072 4.05 21.3828 3.366 21.0084 2.9916C20.634 2.6172 19.9488 2.694 19.482 3.1632L18.642 4.002C18.1728 4.4712 18.0972 5.1552 18.4716 5.5296C18.846 5.904 19.5312 5.8272 19.9992 5.358L20.838 4.5192ZM4.0008 18.6396L3.1608 19.4808C2.6916 19.95 2.616 20.6316 2.9904 21.006C3.3648 21.3804 4.05 21.306 4.5168 20.8368L5.3568 19.998C5.826 19.5288 5.9016 18.8448 5.5272 18.4692C5.1528 18.0936 4.4676 18.1728 4.0008 18.6396ZM4.518 3.162C4.05 2.6928 3.3648 2.616 2.9904 2.9904C2.616 3.3648 2.6928 4.05 3.1596 4.5192L3.9996 5.358C4.4688 5.8272 5.1516 5.904 5.526 5.5296C5.9004 5.1552 5.8248 4.47 5.3568 4.002L4.518 3.162ZM18.6408 19.9992L19.4808 20.838C19.95 21.3072 20.6328 21.3816 21.0072 21.0096C21.3816 20.6352 21.306 19.95 20.8368 19.482L19.998 18.6432C19.5288 18.174 18.8448 18.0972 18.4692 18.4716C18.0936 18.846 18.1716 19.53 18.6408 19.9992Z" fill="#CBCCCE"/>
</g>
<defs>
<clipPath id="clip0_1_6438">
<rect width="24" height="24" fill="white"/>
</clipPath>
</defs>
</svg>
