<svg width="78" height="42" viewBox="0 0 78 42" fill="none" xmlns="http://www.w3.org/2000/svg">
<g clip-path="url(#clip0_1_6437)">
<path d="M49.8 11.0388H48.624C47.9604 11.0388 47.424 11.4696 47.424 12C47.424 12.5292 47.9604 12.9588 48.624 12.9588H49.8C50.4624 12.9588 51 12.5304 51 12C51 11.4708 50.4612 11.0388 49.8 11.0388ZM39 5.4C38.1325 5.39731 37.2731 5.56618 36.4711 5.89691C35.6691 6.22764 34.9405 6.71369 34.3271 7.32709C33.7137 7.94049 33.2276 8.66914 32.8969 9.47111C32.5662 10.2731 32.3973 11.1325 32.4 12C32.4 15.6612 35.3388 18.6 39 18.6C42.66 18.6 45.6 15.6612 45.6 12C45.6 8.3388 42.6588 5.4 39 5.4ZM39 16.8C36.3468 16.8 34.2 14.6508 34.2 12C34.2 9.3468 36.3468 7.2 39 7.2C40.273 7.2 41.4939 7.70571 42.3941 8.60589C43.2943 9.50606 43.8 10.727 43.8 12C43.8 13.273 43.2943 14.4939 42.3941 15.3941C41.4939 16.2943 40.273 16.8 39 16.8ZM30.6 12C30.6 11.4708 30.0612 11.0388 29.4 11.0388H28.2C27.5364 11.0388 27 11.4696 27 12C27 12.5292 27.5364 12.9588 28.2 12.9588H29.4C30.0612 12.9588 30.6 12.5292 30.6 12ZM39 3.6C39.5292 3.6 39.9588 3.0636 39.9588 2.4V1.2C39.9588 0.5364 39.5292 0 39 0C38.4696 0 38.0388 0.5364 38.0388 1.2V2.4C38.0388 3.0636 38.4696 3.6 39 3.6ZM39 20.4C38.4696 20.4 38.0388 20.9364 38.0388 21.6V22.8C38.0388 23.4636 38.4696 24 39 24C39.5292 24 39.9588 23.4636 39.9588 22.8V21.6C39.9588 20.9364 39.5292 20.4 39 20.4ZM47.838 4.5192C48.3072 4.05 48.3828 3.366 48.0084 2.9916C47.634 2.6172 46.9488 2.694 46.482 3.1632L45.642 4.002C45.1728 4.4712 45.0972 5.1552 45.4716 5.5296C45.846 5.904 46.5312 5.8272 46.9992 5.358L47.838 4.5192ZM31.0008 18.6396L30.1608 19.4808C29.6916 19.95 29.616 20.6316 29.9904 21.006C30.3648 21.3804 31.05 21.306 31.5168 20.8368L32.3568 19.998C32.826 19.5288 32.9016 18.8448 32.5272 18.4692C32.1528 18.0936 31.4676 18.1728 31.0008 18.6396ZM31.518 3.162C31.05 2.6928 30.3648 2.616 29.9904 2.9904C29.616 3.3648 29.6928 4.05 30.1596 4.5192L30.9996 5.358C31.4688 5.8272 32.1516 5.904 32.526 5.5296C32.9004 5.1552 32.8248 4.47 32.3568 4.002L31.518 3.162ZM45.6408 19.9992L46.4808 20.838C46.95 21.3072 47.6328 21.3816 48.0072 21.0096C48.3816 20.6352 48.306 19.95 47.8368 19.482L46.998 18.6432C46.5288 18.174 45.8448 18.0972 45.4692 18.4716C45.0936 18.846 45.1716 19.53 45.6408 19.9992Z" fill="#CBCCCE"/>
</g>
<path d="M34.3301 37.3594H29.4199V30.5332H34.3301V37.3594ZM30.5039 36.4629H33.2227V31.4121H30.5039V36.4629ZM37.1953 39.9902H36.0879V29.4902H37.1953V39.9902ZM38.8887 34.5527H36.9434V33.6035H38.8887V34.5527ZM44.1738 29.7129C44.9395 29.7129 45.6035 29.793 46.166 29.9531C46.7285 30.1133 47.1602 30.3457 47.4609 30.6504C47.7656 30.9512 47.918 31.3105 47.918 31.7285C47.918 32.1426 47.7656 32.498 47.4609 32.7949C47.1602 33.0879 46.7285 33.3145 46.166 33.4746C45.6035 33.6348 44.9395 33.7148 44.1738 33.7148C43.4121 33.7148 42.748 33.6348 42.1816 33.4746C41.6191 33.3145 41.1836 33.0879 40.875 32.7949C40.5664 32.498 40.4121 32.1426 40.4121 31.7285C40.4121 31.3105 40.5664 30.9512 40.875 30.6504C41.1836 30.3457 41.6191 30.1133 42.1816 29.9531C42.748 29.793 43.4121 29.7129 44.1738 29.7129ZM44.1738 30.5918C43.6387 30.5918 43.1738 30.6367 42.7793 30.7266C42.3887 30.8125 42.0879 30.9414 41.877 31.1133C41.6699 31.2852 41.5664 31.4902 41.5664 31.7285C41.5664 31.9629 41.668 32.1621 41.8711 32.3262C42.0781 32.4902 42.377 32.6172 42.7676 32.707C43.1621 32.793 43.6309 32.8398 44.1738 32.8477C44.7051 32.8398 45.166 32.793 45.5566 32.707C45.9512 32.6172 46.252 32.4902 46.459 32.3262C46.6699 32.1621 46.7754 31.9629 46.7754 31.7285C46.7754 31.4902 46.6699 31.2852 46.459 31.1133C46.252 30.9414 45.9512 30.8125 45.5566 30.7266C45.166 30.6367 44.7051 30.5918 44.1738 30.5918ZM47.7949 39.8613H40.5352V36.3633H47.7949V39.8613ZM41.6367 38.959H46.7051V37.2539H41.6367V38.959ZM48.9609 35.4316H39.3867V34.5234H48.9609V35.4316Z" fill="#B4B5B7"/>
<defs>
<clipPath id="clip0_1_6437">
<rect width="24" height="24" fill="white" transform="translate(27)"/>
</clipPath>
</defs>
</svg>
