<svg width="24" height="24" viewBox="0 0 24 24" fill="none" xmlns="http://www.w3.org/2000/svg">
<path d="M18.9617 15.558C18.5498 14.8485 17.9375 12.8409 17.9375 10.2188C17.9375 8.64403 17.3119 7.1338 16.1984 6.0203C15.0849 4.90681 13.5747 4.28125 12 4.28125C10.4253 4.28125 8.91505 4.90681 7.80155 6.0203C6.68805 7.1338 6.06249 8.64403 6.06249 10.2188C6.06249 12.8416 5.44945 14.8485 5.03753 15.558C4.93234 15.7384 4.87658 15.9434 4.87586 16.1522C4.87514 16.361 4.9295 16.5663 5.03345 16.7474C5.1374 16.9285 5.28726 17.079 5.46793 17.1837C5.6486 17.2884 5.85368 17.3436 6.06249 17.3438H9.09136C9.22835 18.0141 9.59265 18.6165 10.1227 19.0491C10.6527 19.4818 11.3158 19.7181 12 19.7181C12.6842 19.7181 13.3473 19.4818 13.8773 19.0491C14.4073 18.6165 14.7716 18.0141 14.9086 17.3438H17.9375C18.1462 17.3435 18.3512 17.2882 18.5318 17.1834C18.7124 17.0787 18.8621 16.9282 18.966 16.7471C19.0698 16.566 19.1241 16.3607 19.1234 16.152C19.1226 15.9432 19.0669 15.7384 18.9617 15.558ZM12 18.5312C11.6317 18.5311 11.2726 18.4169 10.9719 18.2042C10.6713 17.9916 10.4439 17.6909 10.3212 17.3438H13.6788C13.5561 17.6909 13.3287 17.9916 13.0281 18.2042C12.7274 18.4169 12.3683 18.5311 12 18.5312ZM6.06249 16.1562C6.63398 15.1736 7.24999 12.8966 7.24999 10.2188C7.24999 8.95897 7.75044 7.75079 8.64124 6.85999C9.53203 5.9692 10.7402 5.46875 12 5.46875C13.2598 5.46875 14.468 5.9692 15.3588 6.85999C16.2495 7.75079 16.75 8.95897 16.75 10.2188C16.75 12.8943 17.3645 15.1714 17.9375 16.1562H6.06249Z" fill="#3D3D3E"/>
</svg>
