<svg width="54" height="54" viewBox="0 0 54 54" fill="none" xmlns="http://www.w3.org/2000/svg">
<rect width="54" height="54" rx="20" fill="#2870FB"/>
<g clip-path="url(#clip0_1_6533)">
<path fill-rule="evenodd" clip-rule="evenodd" d="M19.0037 19.841C19.3449 18.8744 20.3479 18.3612 21.3586 18.5327C22.3117 18.6945 22.683 19.9075 22.0695 20.6545C21.8671 20.9009 21.6719 21.1569 21.5018 21.4103C22.5108 21.0098 23.6212 20.7162 24.8 20.5519V20.3223C24.8 19.77 25.2478 19.3223 25.8 19.3223H28.2C28.7523 19.3223 29.2 19.77 29.2 20.3223V20.552C30.3788 20.7162 31.4892 21.0098 32.4982 21.4103C32.3281 21.1569 32.1329 20.9009 31.9305 20.6545C31.317 19.9075 31.6883 18.6945 32.6414 18.5327C33.6521 18.3612 34.6551 18.8744 34.9963 19.841C35.2401 20.5317 35.5033 21.402 35.6917 22.3619C35.7676 22.748 35.7995 23.1006 35.8 23.4202C37.1814 24.6821 38 26.2509 38 27.9508C38 32.1205 33.0751 35.5007 27 35.5007C20.9249 35.5007 16 32.1205 16 27.9508C16 26.2509 16.8186 24.6821 18.2 23.4202C18.2005 23.1006 18.2324 22.748 18.3083 22.3619C18.4967 21.402 18.7599 20.5317 19.0037 19.841ZM19.85 26.7152C19.85 25.6106 20.7454 24.7152 21.85 24.7152H32.15C33.2545 24.7152 34.15 25.6106 34.15 26.7152V29.1865C34.15 30.2911 33.2545 31.1865 32.15 31.1865H21.85C20.7454 31.1865 19.85 30.2911 19.85 29.1865V26.7152ZM23 27C22.4477 27 22 27.4477 22 28C22 28.5523 22.4477 29 23 29H31C31.5523 29 32 28.5523 32 28C32 27.4477 31.5523 27 31 27H23Z" fill="white"/>
</g>
<defs>
<clipPath id="clip0_1_6533">
<rect width="24" height="24" fill="white" transform="translate(15 15)"/>
</clipPath>
</defs>
</svg>
