<svg width="78" height="42" viewBox="0 0 78 42" fill="none" xmlns="http://www.w3.org/2000/svg">
<path d="M46.649 5.28602L41 8.54802V2.02502H37V8.54802L31.351 5.28602L29.351 8.75102L34.999 12.012L29.351 15.273L31.351 18.738L37 15.477V22H41V15.477L46.649 18.738L48.649 15.273L43.001 12.012L48.649 8.75102L46.649 5.28602Z" fill="#171717"/>
<path d="M37.7695 37.2363H36.6562V29.502H37.7695V37.2363ZM36.8496 33.5977H34.4824V32.6719H36.8496V33.5977ZM34.5469 30.293C34.5469 31.1914 34.3477 32.0195 33.9492 32.7773C33.5547 33.5312 32.9902 34.1875 32.2559 34.7461C31.5254 35.3008 30.6543 35.7422 29.6426 36.0703L29.168 35.1797C30.0234 34.9023 30.7637 34.5469 31.3887 34.1133C32.0176 33.6758 32.502 33.1719 32.8418 32.6016C33.1855 32.0273 33.3574 31.416 33.3574 30.7676V30.293H34.5469ZM34.0781 31.2188H29.707V30.293H34.0781V31.2188ZM38.0391 39.7852H31.002V38.8652H38.0391V39.7852ZM32.1328 39.3457H31.002V36.4453H32.1328V39.3457ZM47.6367 35.7305H46.5293V29.4902H47.6367V35.7305ZM49.166 33.0586H47.3262V32.1445H49.166V33.0586ZM44.7598 30.2402C44.7598 31.1309 44.5625 31.9434 44.168 32.6777C43.7773 33.4121 43.2129 34.0449 42.4746 34.5762C41.7402 35.1035 40.8594 35.5156 39.832 35.8125L39.3691 34.9102C40.248 34.6602 41.002 34.3301 41.6309 33.9199C42.2637 33.5098 42.7461 33.0371 43.0781 32.502C43.4102 31.9668 43.5762 31.3906 43.5762 30.7734V30.2402H44.7598ZM44.2266 31.1484H39.8438V30.2402H44.2266V31.1484ZM44.2793 35.8477C44.9824 35.8477 45.5957 35.9316 46.1191 36.0996C46.6465 36.2637 47.0508 36.5 47.332 36.8086C47.6133 37.1172 47.7539 37.4844 47.7539 37.9102C47.7539 38.332 47.6133 38.6992 47.332 39.0117C47.0508 39.3242 46.6465 39.5625 46.1191 39.7266C45.5957 39.8945 44.9824 39.9785 44.2793 39.9785C43.584 39.9785 42.9727 39.8945 42.4453 39.7266C41.9219 39.5625 41.5176 39.3242 41.2324 39.0117C40.9473 38.6992 40.8047 38.332 40.8047 37.9102C40.8047 37.4844 40.9473 37.1172 41.2324 36.8086C41.5176 36.5 41.9219 36.2637 42.4453 36.0996C42.9727 35.9316 43.584 35.8477 44.2793 35.8477ZM44.2793 36.7266C43.7988 36.7227 43.3789 36.7676 43.0195 36.8613C42.6602 36.9551 42.3848 37.0918 42.1934 37.2715C42.002 37.4512 41.9062 37.6641 41.9062 37.9102C41.9062 38.1523 42.002 38.3633 42.1934 38.543C42.3848 38.7188 42.6602 38.8555 43.0195 38.9531C43.3789 39.0508 43.7988 39.0996 44.2793 39.0996C44.7676 39.0996 45.1895 39.0508 45.5449 38.9531C45.9043 38.8555 46.1816 38.7188 46.377 38.543C46.5723 38.3633 46.6699 38.1523 46.6699 37.9102C46.6699 37.6641 46.5723 37.4512 46.377 37.2715C46.1816 37.0918 45.9043 36.9551 45.5449 36.8613C45.1895 36.7676 44.7676 36.7227 44.2793 36.7266Z" fill="#171717"/>
</svg>
