<svg width="78" height="42" viewBox="0 0 78 42" fill="none" xmlns="http://www.w3.org/2000/svg">
<path d="M39 12C37.9 12 36.9583 11.6083 36.175 10.825C35.3917 10.0417 35 9.1 35 8C35 6.9 35.3917 5.95833 36.175 5.175C36.9583 4.39167 37.9 4 39 4C40.1 4 41.0417 4.39167 41.825 5.175C42.6083 5.95833 43 6.9 43 8C43 9.1 42.6083 10.0417 41.825 10.825C41.0417 11.6083 40.1 12 39 12ZM31 20V17.2C31 16.6333 31.146 16.1127 31.438 15.638C31.73 15.1633 32.1173 14.8007 32.6 14.55C33.6333 14.0333 34.6833 13.646 35.75 13.388C36.8167 13.13 37.9 13.0007 39 13C40.1 13 41.1833 13.1293 42.25 13.388C43.3167 13.6467 44.3667 14.034 45.4 14.55C45.8833 14.8 46.271 15.1627 46.563 15.638C46.855 16.1133 47.0007 16.634 47 17.2V20H31Z" fill="#171717"/>
<path d="M18.7734 37.3594H13.8633V30.5332H18.7734V37.3594ZM14.9473 36.4629H17.666V31.4121H14.9473V36.4629ZM21.6387 39.9902H20.5312V29.4902H21.6387V39.9902ZM23.332 34.5527H21.3867V33.6035H23.332V34.5527ZM32.5312 40.0195H31.4121V29.4902H32.5312V40.0195ZM26.9062 30.2812C27.4297 30.2812 27.8965 30.4336 28.3066 30.7383C28.7168 31.043 29.0371 31.4727 29.2676 32.0273C29.498 32.582 29.6133 33.2285 29.6133 33.9668C29.6133 34.709 29.498 35.3574 29.2676 35.9121C29.0371 36.4668 28.7168 36.8965 28.3066 37.2012C27.8965 37.502 27.4297 37.6523 26.9062 37.6523C26.3828 37.6523 25.9141 37.502 25.5 37.2012C25.0898 36.8965 24.7695 36.4668 24.5391 35.9121C24.3086 35.3574 24.1934 34.709 24.1934 33.9668C24.1934 33.2285 24.3086 32.582 24.5391 32.0273C24.7695 31.4727 25.0898 31.043 25.5 30.7383C25.9141 30.4336 26.3828 30.2812 26.9062 30.2812ZM26.9062 31.2773C26.5859 31.2773 26.3008 31.3867 26.0508 31.6055C25.8008 31.8242 25.6074 32.1367 25.4707 32.543C25.3379 32.9453 25.2715 33.4199 25.2715 33.9668C25.2715 34.5098 25.3379 34.9844 25.4707 35.3906C25.6074 35.7969 25.8008 36.1094 26.0508 36.3281C26.3008 36.543 26.5859 36.6504 26.9062 36.6504C27.2266 36.6504 27.5098 36.543 27.7559 36.3281C28.0059 36.1094 28.1992 35.7969 28.3359 35.3906C28.4727 34.9844 28.541 34.5098 28.541 33.9668C28.541 33.4199 28.4727 32.9453 28.3359 32.543C28.1992 32.1367 28.0078 31.8242 27.7617 31.6055C27.5156 31.3867 27.2305 31.2773 26.9062 31.2773ZM43.2832 39.9902H42.2168V29.4902H43.2832V39.9902ZM40.4941 34.4238H38.8359V33.4277H40.4941V34.4238ZM41.209 39.457H40.1543V29.7305H41.209V39.457ZM39.123 31.6934H34.3008V30.7852H39.123V31.6934ZM34.084 36.5273C35.0059 36.5273 35.9336 36.5117 36.8672 36.4805C37.8008 36.4453 38.625 36.3789 39.3398 36.2812L39.4102 37.0898C38.6797 37.2344 37.8594 37.332 36.9492 37.3828C36.0391 37.4336 35.1289 37.459 34.2188 37.459L34.084 36.5273ZM36.123 36.7969H35.1152V31.3594H36.123V36.7969ZM38.3086 36.7969H37.2832V31.3594H38.3086V36.7969ZM53.2734 40.0195H52.1543V29.4902H53.2734V40.0195ZM47.6484 30.2812C48.1719 30.2812 48.6387 30.4336 49.0488 30.7383C49.459 31.043 49.7793 31.4727 50.0098 32.0273C50.2402 32.582 50.3555 33.2285 50.3555 33.9668C50.3555 34.709 50.2402 35.3574 50.0098 35.9121C49.7793 36.4668 49.459 36.8965 49.0488 37.2012C48.6387 37.502 48.1719 37.6523 47.6484 37.6523C47.125 37.6523 46.6562 37.502 46.2422 37.2012C45.832 36.8965 45.5117 36.4668 45.2812 35.9121C45.0508 35.3574 44.9355 34.709 44.9355 33.9668C44.9355 33.2285 45.0508 32.582 45.2812 32.0273C45.5117 31.4727 45.832 31.043 46.2422 30.7383C46.6562 30.4336 47.125 30.2812 47.6484 30.2812ZM47.6484 31.2773C47.3281 31.2773 47.043 31.3867 46.793 31.6055C46.543 31.8242 46.3496 32.1367 46.2129 32.543C46.0801 32.9453 46.0137 33.4199 46.0137 33.9668C46.0137 34.5098 46.0801 34.9844 46.2129 35.3906C46.3496 35.7969 46.543 36.1094 46.793 36.3281C47.043 36.543 47.3281 36.6504 47.6484 36.6504C47.9688 36.6504 48.252 36.543 48.498 36.3281C48.748 36.1094 48.9414 35.7969 49.0781 35.3906C49.2148 34.9844 49.2832 34.5098 49.2832 33.9668C49.2832 33.4199 49.2148 32.9453 49.0781 32.543C48.9414 32.1367 48.75 31.8242 48.5039 31.6055C48.2578 31.3867 47.9727 31.2773 47.6484 31.2773ZM58.5938 32.5898C58.5938 33.3438 58.4629 34.082 58.2012 34.8047C57.9395 35.5234 57.5801 36.1641 57.123 36.7266C56.666 37.2852 56.1484 37.7051 55.5703 37.9863L54.9141 37.1133C55.4336 36.8633 55.9043 36.498 56.3262 36.0176C56.748 35.5332 57.0781 34.9922 57.3164 34.3945C57.5586 33.793 57.6797 33.1914 57.6797 32.5898V31.0312H58.5938V32.5898ZM58.8047 32.5898C58.8047 33.168 58.9219 33.7422 59.1562 34.3125C59.3945 34.8828 59.7246 35.3906 60.1465 35.8359C60.5723 36.2812 61.0508 36.6191 61.582 36.8496L60.9668 37.7227C60.373 37.457 59.8438 37.0625 59.3789 36.5391C58.918 36.0156 58.5586 35.4121 58.3008 34.7285C58.0469 34.0449 57.9199 33.332 57.9199 32.5898V31.0312H58.8047V32.5898ZM61.207 31.4707H55.2832V30.5566H61.207V31.4707ZM63.6445 39.9902H62.5254V29.4902H63.6445V39.9902Z" fill="#171717"/>
</svg>
